PathFileType	4	(X/Y/Z)	C:\Users\WrightLab\Desktop\Jo\P5V21.trc
DataRate	CameraRate	NumFrames	NumMarkers	Units	OrigDataRate	OrigDataStartFrame	OrigNumFrames
100.00	100.00	       19	19	mm	100.00	350	       399
Frame#	Time	Headset_Front			Headset_Back			Headset_Left			Headset_Right			Left_Shoulder			Right_Shoulder			Sternum			C7			Left Elbow			Right Elbow			Left Wrist			Right Wrist			Left ASIS			Right ASIS			S2			Left Knee			Right Knee			Left Ankle			Right Ankle			
		X1	Y1	Z1	X2	Y2	Z2	X3	Y3	Z3	X4	Y4	Z4	X5	Y5	Z5	X6	Y6	Z6	X7	Y7	Z7	X8	Y8	Z8	X9	Y9	Z9	X10	Y10	Z10	X11	Y11	Z11	X12	Y12	Z12	X13	Y13	Z13	X14	Y14	Z14	X15	Y15	Z15	X16	Y16	Z16	X17	Y17	Z17	X18	Y18	Z18	X19	Y19	Z19	

350	3.490	-493.91229	1429.98560	43.62758	-362.25757	1572.66406	-37.79122				-589.49792	1528.79651	-15.28357	-259.97333	1513.30066	-203.46822	-637.10938	1415.34021	-153.21506	-428.13712	1286.91675	-142.85654	-487.09595	1528.99646	-304.88666	-246.18425	1370.37415	-132.96811	-769.18036	1171.54358	-98.18221	-129.01074	1276.33911	-258.97507	-767.94629	1039.84692	116.74142	-227.71027	934.78796	-182.22731	-524.59460	903.56409	-143.67963	-357.07831	1005.30060	-419.09720	-179.28287	510.33090	-166.21504	-554.85718	488.02170	-219.45508	-157.79845	133.18990	-405.46838	-445.99139	90.67517	-279.56369	
351	3.500	-490.99216	1431.79468	41.74942	-358.93671	1573.79248	-42.85117				-586.32239	1531.25659	-16.30060	-258.79755	1513.76025	-206.40669	-635.35736	1415.56543	-154.62758	-426.91891	1287.34204	-145.54892	-485.98544	1529.03845	-307.44919	-245.19841	1369.51868	-135.37680	-767.50134	1171.54871	-99.30434	-128.92972	1276.06934	-263.45050	-764.64819	1040.13110	115.52687	-226.63971	934.48578	-183.94476	-523.54913	903.64282	-144.33310	-356.68539	1004.15625	-420.15402	-178.25934	509.97971	-168.55266	-553.45319	487.84146	-219.76843	-160.70374	132.77586	-411.44165	-446.00330	90.67717	-279.57492	
352	3.510	-487.74030	1434.61499	42.01318	-355.85446	1574.79883	-45.15369				-583.38153	1534.18018	-18.03610	-257.33929	1513.48108	-209.73558	-634.11237	1416.23560	-156.18045	-426.20914	1287.95093	-145.54855	-484.62894	1528.82019	-308.86380	-244.58609	1369.46960	-137.25829	-765.76752	1171.91736	-100.37633	-128.21425	1275.29907	-264.60269	-762.38507	1040.00330	113.28923	-225.54738	934.42700	-185.82558	-521.60913	904.39606	-144.82878	-356.99191	1004.18353	-421.15549	-178.45514	509.62482	-171.63918	-552.32642	487.82239	-220.07281	-162.52544	133.84576	-417.28592	-445.98605	90.65304	-279.55191	
353	3.520	-483.70969	1436.52417	38.07141	-352.61066	1575.97510	-48.06005				-579.75751	1536.66931	-19.25886	-255.91090	1513.61548	-212.34875	-632.20483	1416.31567	-157.77130	-425.00702	1288.27124	-147.19429	-483.44394	1529.20752	-311.64746	-243.52992	1369.09924	-140.65242	-764.22632	1172.31543	-102.69384	-127.60014	1275.09680	-266.98663	-756.75421	1040.05017	112.45666	-224.22098	934.15063	-188.24620	-519.83282	905.19318	-144.84486	-357.33014	1003.94611	-422.20575	-177.34508	508.80115	-175.35558	-551.21667	487.76111	-221.14897	-164.87650	134.58971	-423.44443	-445.99442	90.71232	-279.55002	
354	3.530	-480.09131	1439.41016	37.57093	-349.16171	1577.42957	-53.21667				-575.76044	1539.25623	-20.65417	-254.05652	1513.57703	-216.37080	-630.61676	1416.78955	-159.22220	-423.82303	1288.76453	-149.02419	-482.12619	1529.06091	-314.38226	-242.53630	1369.18323	-143.37750	-762.76898	1171.97839	-104.78670	-125.54060	1274.37598	-271.39365	-756.51837	1041.41260	109.06272	-223.56371	934.37299	-190.77917	-518.30530	905.43872	-144.57973	-357.84128	1003.36035	-423.41562	-177.94423	507.93176	-178.37083	-549.86182	487.87350	-221.25887	-167.43822	135.01408	-429.04681	-446.94696	92.37998	-279.10413	
355	3.540	-476.08481	1442.65991	36.11730	-345.74026	1579.03247	-58.30433				-572.25055	1541.66113	-21.85195	-252.69826	1513.36902	-218.89182	-630.19208	1417.86597	-161.51617	-422.16470	1289.49597	-149.73198	-480.47784	1528.63354	-316.50726	-242.46684	1368.82996	-145.74956	-761.54370	1172.18213	-107.04407	-125.61494	1274.59253	-273.09854	-752.93561	1041.14783	106.85916	-222.77194	934.23004	-192.79865	-516.03253	906.30389	-145.23421	-358.56906	1003.11115	-424.67093	-177.05969	507.65329	-182.00000	-549.01917	487.57480	-221.75760	-169.20897	134.55908	-434.97632	-447.04654	92.43977	-279.10291	
356	3.550	-471.38019	1444.79797	34.36985	-342.04111	1580.21729	-60.25885				-568.57739	1543.97375	-22.85898	-251.00468	1513.65332	-222.76288	-627.04156	1418.04663	-162.78667	-420.25287	1290.03845	-151.50366	-479.46140	1529.11108	-319.19354	-242.02792	1369.12183	-149.38710	-759.90851	1172.97705	-110.11330	-124.72541	1274.40271	-276.27936	-749.50171	1042.23120	104.12019	-221.97978	933.40735	-195.52861	-514.34912	907.24207	-145.95946	-359.06836	1002.57227	-426.36353	-176.15935	507.84976	-185.44693	-547.33002	488.21796	-221.52953	-171.21017	135.59583	-441.52176	-447.09167	92.73792	-279.04379	
357	3.560	-466.84369	1447.75012	32.09565	-338.71945	1582.54395	-67.68179				-564.07947	1546.57019	-24.54412	-249.33815	1512.88110	-227.70047	-625.61224	1418.81714	-164.58307	-418.11060	1291.75964	-153.39536	-478.01492	1529.04150	-321.92130	-240.26328	1369.92175	-153.09523	-758.01764	1172.85535	-113.17120	-123.68576	1274.06970	-278.01987	-746.79962	1042.26160	100.72799	-221.65540	933.58954	-198.34813	-512.44806	908.28998	-146.23872	-359.61551	1002.38745	-428.16281	-175.03612	507.60855	-188.74197	-546.31726	488.77063	-221.87108	-172.56462	135.53749	-447.06458	-447.34091	92.71220	-279.17264	
358	3.570				-335.17255	1584.14783	-71.34124				-559.73602	1548.71301	-26.07629	-246.94287	1512.31921	-232.21201	-623.37476	1418.99060	-165.99194	-415.54645	1291.74243	-155.85182	-476.55023	1528.90820	-324.21869	-238.68712	1370.01453	-156.51222	-756.22174	1172.46936	-115.06454	-122.29263	1273.68567	-283.47736	-742.21448	1042.33618	98.65568	-220.27600	933.17334	-200.43236	-510.34393	909.16382	-146.85397	-360.46759	1001.81592	-429.61374	-175.06561	507.41855	-192.60468	-545.81818	489.11154	-222.69336	-173.72545	136.14145	-452.78247	-447.32581	92.92584	-279.08929	
359	3.580				-331.37891	1586.16565	-77.15804				-555.64691	1550.72229	-28.46764	-245.60693	1512.32153	-234.15346	-621.48724	1419.49731	-168.48450	-413.00931	1291.63770	-158.39748	-475.32925	1529.26709	-327.34186	-237.11916	1371.30396	-160.54416	-754.28058	1172.96204	-119.20152	-121.07777	1272.98743	-285.87299	-739.27777	1043.59424	95.34590	-219.74719	933.51587	-203.35217	-507.75317	909.38391	-146.95181	-361.29181	1001.64465	-431.55917	-173.05632	507.39230	-196.49136	-545.01581	489.53516	-222.80170	-175.80307	136.28561	-458.37146	-447.50882	92.79191	-279.19598	
360	3.590				-327.63626	1588.17542	-82.50755				-551.41461	1552.84631	-30.17803	-242.62558	1514.25757	-239.12674	-619.48627	1420.15747	-170.15906	-410.72293	1293.22461	-159.71439	-473.58514	1529.23169	-329.93948	-235.06210	1371.71448	-164.71948	-752.35712	1173.70227	-122.00349	-120.28876	1271.86865	-288.47729	-736.35168	1043.65308	91.36346	-218.50108	933.76495	-206.36925	-506.15613	910.61298	-148.48412	-361.90179	1001.24127	-432.97729	-171.89604	507.28281	-201.06940	-544.41711	489.75046	-223.36732	-177.12914	136.78291	-463.74066	-447.56326	92.78524	-279.18298	
361	3.600				-323.73911	1590.31860	-88.96381				-545.38593	1555.22449	-31.64251	-241.21756	1514.27722	-242.99341	-617.27435	1420.21741	-172.48276	-408.34641	1294.12207	-161.89619	-472.21036	1528.98987	-332.77933	-233.14590	1372.09644	-168.36693	-750.93958	1173.87805	-125.72864	-118.24097	1272.51550	-295.11707	-732.01849	1044.21838	88.44711	-216.43759	933.79236	-209.48320	-503.94287	911.28473	-148.93138	-362.24973	1001.02527	-435.79498	-170.52925	506.55792	-204.71010	-543.46979	490.49850	-223.24487	-178.61264	136.95143	-468.83731	-447.63873	92.81144	-279.19962	
362	3.610				-319.55261	1592.26794	-94.79984				-540.39594	1557.26440	-32.66060	-238.99641	1513.09338	-248.91762	-614.88464	1420.58826	-173.94325	-405.22141	1293.55310	-165.96510	-470.96045	1529.32788	-336.01782	-230.81775	1373.25110	-172.47255	-748.58984	1173.47925	-128.48036	-117.39504	1272.65784	-297.56097	-727.99109	1044.94153	85.00380	-215.32553	933.40411	-212.93590	-501.50000	911.79559	-150.09503	-362.94016	1000.27264	-437.37585	-168.74460	506.40057	-209.05664	-542.87622	490.24811	-223.12598	-179.79308	136.44823	-473.21802	-447.63647	92.78500	-279.20276	
363	3.620				-315.53949	1594.56323	-101.99670				-535.64966	1558.51831	-34.78345	-238.89543	1512.02234	-253.41489	-612.31732	1420.69202	-175.70239	-402.88062	1294.89600	-167.18080	-469.26675	1528.70752	-338.72256	-228.96802	1372.78967	-176.76714	-746.47998	1172.81287	-130.68396	-116.18566	1271.90967	-302.23209	-723.66699	1045.36243	81.89400	-214.34822	933.24426	-215.38048	-499.21603	911.83301	-149.00543	-363.49994	1000.23236	-440.18375	-167.51341	506.17645	-212.20096	-542.31012	490.51010	-223.36288	-181.74432	136.77647	-478.22632	-447.60468	92.78462	-279.19156	
364	3.630				-311.53940	1596.54773	-107.56760				-531.16626	1560.30090	-37.77802	-235.42712	1512.15747	-259.61404	-610.10114	1421.16394	-178.66263	-400.01984	1295.20105	-171.52145	-467.85373	1529.02429	-342.51392	-226.14149	1373.10889	-180.73332	-744.62817	1173.23804	-134.67061	-114.59556	1271.13440	-306.12891	-719.14874	1045.43311	78.45589	-211.67249	933.16449	-218.67596	-497.55215	911.87933	-152.32324	-363.15353	999.25793	-442.48004	-166.87384	505.44156	-216.61792	-541.70819	490.14557	-223.12427	-183.28456	136.73776	-483.55438	-447.53717	92.73304	-278.93091	
365	3.640				-307.41644	1598.67236	-114.93888				-522.90662	1561.24426	-39.02722	-233.69714	1512.19080	-263.69412	-607.69501	1421.62170	-179.96007	-397.14059	1294.94971	-175.19003	-466.32059	1528.40405	-345.39056	-223.32899	1373.85352	-186.38852	-743.02948	1173.18970	-137.81268	-112.46134	1271.03589	-312.44241	-715.28705	1046.52820	74.04023	-210.47234	933.15100	-221.68993	-495.46655	913.39349	-151.35425	-364.13367	998.54382	-445.23578	-164.64339	505.44440	-220.28152	-541.11127	490.28125	-222.76720	-185.21732	136.16055	-488.16791	-447.37943	92.95285	-279.02014	
366	3.650										-516.30591	1562.25781	-40.30232	-231.16879	1511.96399	-269.48761	-605.01605	1421.62158	-182.04120	-394.70505	1295.85742	-176.92462	-465.09589	1528.04590	-349.32578	-220.16736	1374.42639	-190.67456	-740.74622	1173.39429	-141.79837	-111.24580	1270.49084	-318.42969	-710.57898	1047.60107	71.23185	-208.33336	932.81409	-225.66682	-493.67148	913.69159	-154.60712	-363.92313	997.32117	-447.77042	-164.06065	504.97922	-224.60300	-539.75189	490.59659	-222.30066	-187.05191	135.28430	-492.39429	-447.41040	92.78252	-278.56573	
367	3.660										-510.47983	1564.28882	-42.89652	-229.57072	1512.23242	-274.80051	-602.46320	1422.13477	-183.81694	-391.23352	1296.25928	-180.47037	-463.40759	1528.07751	-352.45352	-217.45366	1374.63208	-195.84576	-738.77649	1173.18896	-144.67419	-109.91959	1270.55249	-322.96127	-705.64978	1047.37671	67.54569	-206.63071	932.74078	-228.24091	-491.10684	913.69904	-154.33264	-364.71252	996.47473	-450.04510	-162.33710	504.78229	-228.80426	-538.88800	491.13791	-221.55858	-188.35509	134.21512	-495.94962	-447.50449	92.71654	-279.15390	
368	3.670										-502.86841	1564.78430	-44.53796	-227.66183	1511.82080	-280.89011	-599.68573	1421.87952	-186.82274	-388.63455	1296.29810	-183.98109	-462.22070	1527.34412	-356.55258	-214.42245	1374.89734	-199.91850	-736.56970	1172.94531	-147.26512	-107.79217	1269.51355	-327.37668	-701.87439	1047.57324	63.45507	-204.25096	932.27063	-231.62233	-489.38669	913.94983	-156.36568	-364.30371	995.02850	-452.23129	-161.22015	504.66187	-233.25136	-537.65167	491.19894	-220.80603	-189.74338	130.94974	-499.38583	-447.66382	92.29736	-278.57166	
